<svg xmlns="http://www.w3.org/2000/svg" width="25" height="25" fill="white" class="bi bi-cassette" viewBox="0 0 25 25">
  <path d="M6.25 12.5a1.563 1.563 0 1 0 0 -3.125 1.563 1.563 0 0 0 0 3.125m14.063 -1.563a1.563 1.563 0 1 1 -3.125 0 1.563 1.563 0 0 1 3.125 0m-9.375 -1.563a1.563 1.563 0 0 0 0 3.125h3.125a1.563 1.563 0 1 0 0 -3.125z"/>
  <path d="M2.344 3.125A2.344 2.344 0 0 0 0 5.469v14.063a2.344 2.344 0 0 0 2.344 2.343h20.313a2.344 2.344 0 0 0 2.344 -2.344V5.468a2.344 2.344 0 0 0 -2.344 -2.343zm-0.782 2.344a0.783 0.783 0 0 1 0.782 -0.782h20.313a0.783 0.783 0 0 1 0.782 0.782v14.063a0.783 0.783 0 0 1 -0.782 0.782h-1.08l-2.128 -4.256a0.783 0.783 0 0 0 -0.698 -0.433h-12.5a0.783 0.783 0 0 0 -0.698 0.432l-2.13 4.256H2.344a0.783 0.783 0 0 1 -0.782 -0.782zm16.705 11.718 1.563 3.125H5.17l1.563 -3.125z"/>
</svg>
