<svg xmlns="http://www.w3.org/2000/svg" width="30" height="30" fill="white" class="bi bi-folder-plus" viewBox="0 0 30 30">
  <path d="m0.938 5.625 0.075 1.631a3.75 3.75 0 0 0 -0.641 2.458l1.194 13.125A3.75 3.75 0 0 0 5.299 26.25H16.875v-1.875H5.299a1.875 1.875 0 0 1 -1.866 -1.706l-1.194 -13.125A1.875 1.875 0 0 1 4.106 7.5h21.787a1.875 1.875 0 0 1 1.867 2.044L27.262 15h1.884l0.48 -5.286A3.75 3.75 0 0 0 25.894 5.625H18.427a3.75 3.75 0 0 1 -2.651 -1.099l-1.552 -1.552A3.75 3.75 0 0 0 11.572 1.875H4.688a3.75 3.75 0 0 0 -3.75 3.75m10.635 -1.875a1.875 1.875 0 0 1 1.326 0.549L14.224 5.625H4.106q-0.679 0.004 -1.281 0.225L2.813 5.588a1.875 1.875 0 0 1 1.875 -1.837z"/>
  <path d="M25.313 16.875a0.938 0.938 0 0 1 0.938 0.938V20.625h2.813a0.938 0.938 0 1 1 0 1.875H26.25v2.813a0.938 0.938 0 1 1 -1.875 0V22.5h-2.813a0.938 0.938 0 0 1 0 -1.875H24.375V17.813a0.938 0.938 0 0 1 0.938 -0.938"/>
</svg>
