<svg xmlns="http://www.w3.org/2000/svg" width="30" height="30" fill="white" class="bi bi-volume-down" viewBox="0 0 30 30">
  <path d="M16.875 7.5a0.938 0.938 0 0 0 -1.523 -0.731L10.922 10.313H6.563A0.938 0.938 0 0 0 5.625 11.25v7.5a0.938 0.938 0 0 0 0.938 0.938h4.359l4.431 3.544A0.938 0.938 0 0 0 16.875 22.5zM11.835 11.981 15 9.45v11.1L11.835 18.019A0.938 0.938 0 0 0 11.25 17.813H7.5v-5.625h3.75a0.938 0.938 0 0 0 0.585 -0.206M22.547 15a8.438 8.438 0 0 1 -2.471 5.966L18.75 19.641A6.563 6.563 0 0 0 20.672 15 6.563 6.563 0 0 0 18.75 10.359l1.326 -1.326A8.438 8.438 0 0 1 22.547 15"/>
</svg>
