<svg xmlns="http://www.w3.org/2000/svg" width="30" height="30" fill="white" class="bi bi-volume-up" viewBox="0 0 30 30">
  <path d="M21.63 26.269A15.881 15.881 0 0 0 26.299 15a15.881 15.881 0 0 0 -4.669 -11.269l-1.327 1.326A14.025 14.025 0 0 1 24.422 15c0 3.883 -1.575 7.399 -4.119 9.943z"/>
  <path d="M18.977 23.617A12.15 12.15 0 0 0 22.547 15a12.15 12.15 0 0 0 -3.57 -8.617l-1.326 1.326A10.275 10.275 0 0 1 20.672 15a10.275 10.275 0 0 1 -3.019 7.294z"/>
  <path d="M18.797 15a8.438 8.438 0 0 1 -2.471 5.966L15 19.641A6.563 6.563 0 0 0 16.922 15c0 -1.811 -0.735 -3.452 -1.922 -4.641l1.326 -1.326A8.438 8.438 0 0 1 18.797 15M13.125 7.5a0.938 0.938 0 0 0 -1.523 -0.731L7.172 10.313H2.813A0.938 0.938 0 0 0 1.875 11.25v7.5a0.938 0.938 0 0 0 0.938 0.938h4.359l4.431 3.544A0.938 0.938 0 0 0 13.125 22.5zM8.085 11.981 11.25 9.45v11.1L8.085 18.019A0.938 0.938 0 0 0 7.5 17.813H3.75v-5.625h3.75a0.938 0.938 0 0 0 0.585 -0.206"/>
</svg>
